<svg viewBox="0 0 252 50" version="1.1" xmlns="http://www.w3.org/2000/svg" xmlns:xlink="http://www.w3.org/1999/xlink"><g stroke="none" stroke-width="1" fill="none" fill-rule="evenodd"><g transform="translate(-70.000000, -34.000000)" fill="currentColor" fill-rule="nonzero"><g transform="translate(64.000000, 34.000000)"><g transform="translate(6.000000, 0.000000)"><g transform="translate(64.500000, 19.000000)"><path d="M11.6714194,5.85723077 C11.6687551,4.35537773 11.0595346,2.91827547 9.98199692,1.87210058 C8.90445918,0.825925691 7.44999369,0.259407699 5.94871795,0.301128205 C3.91283917,0.234627818 2.00249319,1.28279933 0.964871188,3.03567277 C-0.0727508174,4.7885462 -0.0727508174,6.96755636 0.964871188,8.7204298 C2.00249319,10.4733032 3.91283917,11.5214747 5.94871795,11.4549744 C7.4562791,11.4935694 8.91526947,10.9203097 9.99332728,9.86578536 C11.0713851,8.81126104 11.6767018,7.3652765 11.6714194,5.85723077 Z M2.82564103,5.85723077 C2.79185515,5.0036476 3.10457973,4.17265886 3.69273889,3.55313121 C4.28089806,2.93360356 5.09453182,2.57816151 5.94871795,2.56758974 C6.80130404,2.58304105 7.61202783,2.93998864 8.1991367,3.55840998 C8.78624557,4.17683133 9.10062472,5.00499217 9.07179487,5.85723077 C9.10552966,6.7125001 8.79333932,7.54530593 8.20570037,8.16764356 C7.61806142,8.78998119 6.80451497,9.14938423 5.94871795,9.16471795 C5.09184217,9.15265741 4.2763379,8.79425995 3.68799437,8.17117613 C3.09965084,7.54809232 2.78857661,6.7133895 2.82564103,5.85723077 Z"></path><path d="M16.5374359,0.550974359 L16.5374359,7.56451282 C16.5374359,9.944 18.6075897,11.4371282 21.1476923,11.4371282 C23.6877949,11.4371282 25.7698462,9.93210256 25.7698462,7.56451282 L25.7698462,0.550974359 L23.2475897,0.550974359 L23.2475897,7.3265641 C23.2475897,8.41517949 22.4147692,9.16471795 21.1774359,9.16471795 C19.9401026,9.16471795 19.1251282,8.41517949 19.1251282,7.3265641 L19.1251282,0.550974359 L16.5374359,0.550974359 Z"></path><polygon points="35.96 11.2051282 35.96 2.62112821 39.166359 2.62112821 39.166359 0.550974359 30.1659487 0.550974359 30.1659487 2.60328205 33.3901538 2.60328205 33.3901538 11.2051282"></polygon><path d="M52.854359,5.87507692 C52.854359,2.55569231 50.2190769,0.550974359 47.1495385,0.550974359 L43.5803077,0.550974359 L43.5803077,11.2051282 L47.1495385,11.2051282 C50.2190769,11.2051282 52.854359,9.20041026 52.854359,5.87507692 Z M46.0430769,8.98030769 L46.0430769,2.76984615 L46.8461538,2.76984615 C48.7021538,2.76984615 50.2666667,3.80492308 50.2666667,5.87507692 C50.2666667,7.94523077 48.7021538,8.98030769 46.8461538,8.98030769 L46.0430769,8.98030769 Z"></path><path d="M68.767221,5.85723077 C68.767221,2.4545641 65.9772308,0.301128205 63.0207179,0.301128205 C59.9592916,0.392577159 57.5438083,2.93461286 57.6086769,5.99671774 C57.6735456,9.05882263 60.1945162,11.4962828 63.2570688,11.4579994 C66.3196215,11.4197159 68.7788749,8.92000035 68.767221,5.85723077 L68.767221,5.85723077 Z M59.9154872,5.85723077 C59.8654297,4.71218207 60.447793,3.63202617 61.4319309,3.04456131 C62.4160687,2.45709646 63.6432133,2.45709646 64.6273512,3.04456131 C65.611489,3.63202617 66.1938524,4.71218207 66.1437949,5.85723077 C66.1938524,7.00227947 65.611489,8.08243537 64.6273512,8.66990022 C63.6432133,9.25736508 62.4160687,9.25736508 61.4319309,8.66990022 C60.447793,8.08243537 59.8654297,7.00227947 59.9154872,5.85723077 L59.9154872,5.85723077 Z"></path><path d="M78.9394872,11.4549744 C80.975366,11.5214747 82.8857119,10.4733032 83.9233339,8.7204298 C84.9609559,6.96755636 84.9609559,4.7885462 83.9233339,3.03567277 C82.8857119,1.28279933 80.975366,0.234627818 78.9394872,0.301128205 C78.4808275,0.303609702 78.0238905,0.357484371 77.5772308,0.46174359 C75.0281017,1.01253476 73.2086351,3.26712183 73.2086351,5.87507692 C73.2086351,8.48303202 75.0281017,10.7376191 77.5772308,11.2884103 C78.0231443,11.397538 78.480417,11.4534491 78.9394872,11.4549744 L78.9394872,11.4549744 Z M75.8342564,5.85723077 C75.7889729,4.61158529 76.4683769,3.4521928 77.5772308,2.88287179 C77.9978952,2.66241454 78.4645983,2.54421026 78.9394872,2.53784615 C79.8026313,2.54511386 80.6258023,2.90266829 81.2202545,3.52852551 C81.8147067,4.15438272 82.1294467,4.99485536 82.0923077,5.85723077 C82.1260425,6.7125001 81.8138521,7.54530593 81.2262132,8.16764356 C80.6385742,8.78998119 79.8250278,9.14938423 78.9692308,9.16471795 C78.4947958,9.16041564 78.0280683,9.04424329 77.6069744,8.82564103 C76.4927165,8.26120395 75.802774,7.10589752 75.8342564,5.85723077 L75.8342564,5.85723077 Z"></path><path d="M97.0295385,3.77517949 C97.0295385,1.77046154 95.4114872,0.550974359 93.5911795,0.550974359 L89.6174359,0.550974359 L89.6174359,11.2051282 L92.104,11.2051282 L92.104,7.04102564 L93.0260513,7.04102564 L95.8992821,11.2348718 L98.7844103,11.2348718 L95.393641,6.47589744 C96.4173478,5.96995768 97.0552762,4.916796 97.0295385,3.77517949 L97.0295385,3.77517949 Z M93.2104615,4.96492308 L92.104,4.96492308 L92.104,2.5854359 L93.2104615,2.5854359 C93.8675388,2.5854359 94.4002051,3.11810225 94.4002051,3.77517949 C94.4002051,4.43225673 93.8675388,4.96492308 93.2104615,4.96492308 Z"></path><path d="M119.087385,5.87507692 C119.087385,2.55569231 116.452103,0.550974359 113.376615,0.550974359 L109.807385,0.550974359 L109.807385,11.2051282 L113.376615,11.2051282 C116.452103,11.2051282 119.087385,9.20041026 119.087385,5.87507692 Z M113.079179,8.98030769 L112.276103,8.98030769 L112.276103,2.76984615 L113.079179,2.76984615 C114.929231,2.76984615 116.499692,3.80492308 116.499692,5.87507692 C116.499692,7.94523077 114.929231,8.98030769 113.079179,8.98030769 L113.079179,8.98030769 Z"></path><path d="M131.430974,3.77517949 C131.430974,1.77046154 129.812923,0.550974359 127.992615,0.550974359 L124.018872,0.550974359 L124.018872,11.2051282 L126.505436,11.2051282 L126.505436,7.04102564 L127.421538,7.04102564 L130.276923,11.2051282 L133.168,11.2051282 L129.777231,6.44615385 C130.792043,5.94329577 131.433208,4.90774547 131.430974,3.77517949 Z M127.605949,4.96492308 L126.505436,4.96492308 L126.505436,2.5854359 L127.605949,2.5854359 C128.263026,2.5854359 128.795692,3.11810225 128.795692,3.77517949 C128.795692,4.43225673 128.263026,4.96492308 127.605949,4.96492308 Z"></path><polygon points="143.536615 2.66871795 143.536615 0.550974359 137.326154 0.550974359 137.326154 11.2051282 144.006564 11.2051282 144.006564 9.0814359 139.913846 9.0814359 139.913846 6.94584615 142.870359 6.94584615 142.870359 4.79241026 139.913846 4.79241026 139.913846 2.66871795"></polygon><path d="M154.868923,8.98030769 L155.707692,11.2051282 L158.277538,11.2051282 L154.071795,0.467692308 L152.287179,0.467692308 L148.123077,11.2051282 L150.562051,11.2051282 L151.382974,8.98030769 L154.868923,8.98030769 Z M152.769026,4.89353846 C152.905235,4.53885037 153.016548,4.17509647 153.102154,3.80492308 L153.131897,3.80492308 C153.233026,4.19158974 153.352,4.59015385 153.465026,4.89353846 L154.238359,7.02912821 L151.995692,7.02912821 L152.769026,4.89353846 Z"></path><path d="M165.076923,11.2051282 L165.416,7.27897436 C165.46359,6.68410256 165.511179,6.02379487 165.511179,5.32779487 L165.546872,5.32779487 C165.813559,6.0092172 166.115365,6.6763675 166.451077,7.3265641 L168.467692,11.2348718 L169.502769,11.2348718 L171.507487,7.3265641 C171.845643,6.67144955 172.147501,5.99822712 172.411692,5.30994872 L172.441436,5.30994872 C172.441436,5.99405128 172.494974,6.66030769 172.542564,7.27897436 L172.893538,11.2051282 L175.433641,11.2051282 L174.481846,0.550974359 L172.358154,0.550974359 L170.056,5.02441026 C169.679173,5.76441066 169.33967,6.52283207 169.038769,7.29682051 L169.003077,7.29682051 C168.717538,6.59487179 168.253538,5.64307692 167.932308,5.02441026 L165.612308,0.550974359 L163.51241,0.550974359 L163.328,2.65682051 L162.590359,11.2051282 L165.076923,11.2051282 L165.076923,11.2051282 Z"></path><path d="M183.428718,9.27179487 C182.210811,9.27063378 181.030372,8.85054884 180.085538,8.08205128 L180.323487,10.5686154 C181.275682,11.1982841 182.400943,11.5144386 183.541744,11.4728205 C186.165128,11.4728205 187.515487,10.0986667 187.515487,8.01661538 C187.515487,6.34502564 186.266256,5.16123077 184.541128,4.59015385 C183.268103,4.17374359 182.905231,3.85846154 182.905231,3.35876923 C182.905231,2.85907692 183.333538,2.43671795 184.25559,2.43671795 C185.036139,2.45490688 185.797014,2.68522587 186.456615,3.10297436 L186.658872,0.937641026 C185.870242,0.477830868 184.965139,0.256721137 184.053333,0.301128205 C181.715487,0.301128205 180.365128,1.73476923 180.365128,3.53723077 C180.365128,5.0065641 181.346667,6.19630769 183.202667,6.84471795 C184.523282,7.31466667 184.892103,7.62994872 184.892103,8.26646154 C184.892103,8.90297436 184.410256,9.27179487 183.428718,9.27179487 Z"></path></g><path d="M24.9937879,7.72160462e-07 C11.1874786,0.00343211027 -0.00228620058,11.1978318 3.50368236e-07,25.0041413 C0.00228760227,38.8104508 11.1957603,50.0011429 25.00207,50.0000008 C38.8083797,49.9988564 50.0000004,38.8063108 50.0000004,25.0000008 C50.0000004,18.3685125 47.3652259,12.0087232 42.6754729,7.32013524 C37.9857199,2.63154727 31.6252762,-0.00164623444 24.9937879,7.72160462e-07 Z M10.7062991,22.9842227 C10.7062991,15.8404783 15.7659337,11.4921121 21.1641197,11.4921121 C25.4255185,11.4921121 28.9290593,13.3929693 30.5938623,17.2133196 C30.637346,17.3127108 30.6808296,17.4121021 30.7212073,17.5239172 C30.761585,17.6357323 30.8019627,17.7226996 30.8392344,17.8345148 C30.992647,18.2544704 31.1222682,18.6827389 31.2274814,19.1172828 C31.2554352,19.225992 31.280283,19.3378071 31.3051308,19.4527282 C31.3299786,19.5676493 31.3517204,19.6732525 31.3734622,19.7850676 C31.5630443,20.7937474 31.6566417,21.8181191 31.6531024,22.8444538 C31.6531024,26.1181523 29.8422162,30.7988579 25.2546899,32.5723701 L25.2546899,31.3299798 C28.0500681,29.2613999 28.2892282,25.006213 28.2892282,22.4127232 C28.2899995,21.3248736 28.1754741,20.2400056 27.9475709,19.1762963 C27.9258291,19.0800111 27.9071932,18.9837258 27.8823454,18.8874406 C27.8574976,18.7911553 27.8357558,18.6948701 27.810908,18.5985848 C27.7332586,18.2879873 27.6462912,18.0022375 27.550006,17.7071698 L27.4475088,17.418314 C27.4133431,17.3220288 27.3791773,17.2257435 27.3419056,17.1325642 C26.3045097,14.467637 24.3570628,12.28103 21.1703316,12.28103 C14.5856629,12.28103 14.0762828,20.0055919 14.0762828,22.431359 C14.0762828,26.5157172 15.9709281,32.5226745 21.1703316,32.5226745 L21.3597962,32.5226745 C21.3597962,32.7618346 21.3597962,33.0227366 21.3597962,33.2898505 L21.1765436,33.2898505 C13.5637968,33.2898505 10.709405,26.9567658 10.709405,22.9842227 L10.7062991,22.9842227 Z M36.8306618,35.7497834 C34.6687083,37.7499308 31.8308463,38.8593374 28.8855756,38.8557678 C28.1525653,38.8557678 27.0778977,38.7967457 23.7141258,38.7967457 C19.5583302,38.7967457 19.446515,38.8557678 19.2477326,38.8557678 C19.0489501,38.8557678 19.0209964,38.7377321 19.0209964,38.4706182 C19.0209964,38.1600206 19.0209964,37.9674501 19.8130202,37.9674501 C21.1423779,37.9674501 21.7915268,37.464282 21.8194806,36.6660463 C21.8536463,35.802585 21.8784941,34.8024608 21.890918,33.8365023 C21.890918,33.740217 21.890918,33.6470377 21.890918,33.5507525 C21.890918,33.4544672 21.890918,33.355076 21.890918,33.2618967 C21.890918,32.9885709 21.890918,32.7276689 21.890918,32.4822968 C21.890918,32.3829056 21.890918,32.2866203 21.890918,32.1934411 L21.890918,24.7390991 C21.890918,22.6394594 21.8629642,21.9437208 21.8319045,20.5677735 C21.8039507,18.8222151 21.3256304,18.5861609 19.2881103,18.5861609 C18.9775127,18.5861609 18.9775127,18.3501068 18.9775127,18.0829928 C18.9775127,17.9059522 19.0334203,17.6978518 19.2322027,17.6978518 C19.4309852,17.6978518 21.9188718,17.8158789 23.698596,17.8158789 C24.978258,17.8158789 26.1088332,17.7258056 26.9412347,17.7040638 C27.040626,17.9960255 27.1306993,18.2910932 27.2114546,18.5861609 C24.6894023,18.6016908 24.6894023,18.834639 24.6894023,20.8038277 L24.6894023,36.5883969 C24.6894023,37.6226868 25.5373337,37.9767681 27.3450116,37.9767681 C32.4326,37.9767681 36.6443032,34.3086106 36.5045343,28.0065856 C36.3896132,23.3010322 34.2992915,20.8628412 32.8022111,19.8968827 C32.4937042,19.6918673 32.1685013,19.5131616 31.8300407,19.3626549 C31.7248536,18.8687065 31.5910715,18.3812832 31.4293698,17.9028462 C33.1180948,18.0821166 34.7311451,18.6975805 36.1100754,19.6887824 C38.7656847,21.5523679 39.8683062,25.0745444 39.8683062,27.7984853 C39.886942,31.0597599 38.7843206,33.8365023 36.8337678,35.7591013 L36.8306618,35.7497834 Z"></path></g></g></g></g></svg>